<?xml version="1.0" encoding="UTF-8" standalone="no"?>
<!-- Created with Inkscape (http://www.inkscape.org/) -->

<svg
   width="80.379692mm"
   height="89.222992mm"
   viewBox="0 0 80.379692 89.222992"
   version="1.1"
   id="svg506"
   inkscape:version="1.1 (c68e22c387, 2021-05-23)"
   sodipodi:docname="AP_Logo.svg"
   xmlns:inkscape="http://www.inkscape.org/namespaces/inkscape"
   xmlns:sodipodi="http://sodipodi.sourceforge.net/DTD/sodipodi-0.dtd"
   xmlns="http://www.w3.org/2000/svg"
   xmlns:svg="http://www.w3.org/2000/svg">
  <sodipodi:namedview
     id="namedview508"
     pagecolor="#ffffff"
     bordercolor="#666666"
     borderopacity="1.0"
     inkscape:pageshadow="2"
     inkscape:pageopacity="0.0"
     inkscape:pagecheckerboard="0"
     inkscape:document-units="mm"
     showgrid="false"
     inkscape:zoom="0.55411055"
     inkscape:cx="-479.14626"
     inkscape:cy="540.50586"
     inkscape:window-width="1920"
     inkscape:window-height="1017"
     inkscape:window-x="-8"
     inkscape:window-y="-8"
     inkscape:window-maximized="1"
     inkscape:current-layer="layer1"
     fit-margin-top="0"
     fit-margin-left="0"
     fit-margin-right="0"
     fit-margin-bottom="0" />
  <defs
     id="defs503" />
  <g
     inkscape:label="Layer 1"
     inkscape:groupmode="layer"
     id="layer1"
     transform="translate(-7.0818566,-5.0476732)">
    <path
       style="fill:#cccccc;stroke-width:0.264583"
       id="path79"
       d="m 7.0818566,12.928213 c 0.16522,0.8727 0.36104,1.74017 0.49567,2.61811 1.06096,6.91859 1.48127,13.94918 1.96008,20.92421 0.7429304,10.82267 0.6580304,10.39069 1.1556304,21.38831 0.51111,9.29946 0.36027,18.61974 0.67609,27.92396 0.0564,1.66192 0.0606,3.33348 0.29312,4.98002 0.0994,0.70384 -0.009,2.11497 0.695,2.01607 1.75419,-0.24648 3.03061,-1.83497 4.545911,-2.75246 0.432524,-1.20835 0.921829,-2.39785 1.29758,-3.62505 1.319252,-4.30865 2.564749,-9.71194 3.549528,-14.00041 2.250109,-9.79864 4.241186,-19.65523 6.336691,-29.48756 0.713843,-3.26138 1.397061,-6.52961 2.141527,-9.78413 0.708314,-3.09649 2.987233,-12.64084 4.0284,-16.0636 1.89094,-6.21631 1.123048,-3.85891 3.916612,-8.2914197 0.312316,-0.49555 -0.681945,0.95257 -1.022917,1.4288597 0.717127,0.53476 1.590384,0.90749 2.15138,1.60428 1.826477,2.26859 3.823722,7.25291 4.774367,9.67004 2.851346,7.24993 5.093409,14.72032 7.381989,22.15953 3.453365,11.9658 6.874435,23.94106 10.21154,35.93986 0.950913,3.5659 2.014916,7.10299 2.888152,10.68962 0.09877,0.40567 0.757486,2.94543 0.630735,3.69982 -0.02869,0.17079 -0.280691,0.20293 -0.421037,0.30439 0.884413,-0.82425 2.316134,-1.31176 2.653239,-2.47277 0.206172,-0.71007 -0.971296,-1.11517 -1.447138,-1.6811 -2.273356,-2.70376 -2.405481,-3.00427 -4.942406,-5.79415 -2.842123,-3.12551 -4.194659,-4.40185 -7.260643,-7.47149 -7.396157,-6.99857 -15.132089,-13.70436 -23.547779,-19.46237 -1.405546,-0.96168 -2.860431,-1.84917 -4.290647,-2.77376 -4.683882,-2.77053 -2.58644,-1.58359 -6.819694,-3.90774 -0.679802,-0.37323 -1.386773,-0.7005 -2.040405,-1.11787 -0.264835,-0.16911 -0.413909,-0.7625 -0.699643,-0.63177 -5.827502,2.66645 -0.866592,1.97843 0.363307,1.94923 10.592104,-0.094 21.186587,-0.96193 31.593065,-2.98166 2.535607,-0.49213 5.046186,-1.10543 7.569279,-1.65814 6.617824,-1.69131 13.206052,-3.71338 19.049817,-7.35247 4.36231,-2.71653 7.57139,-4.43786 10.21155,-8.63337 0.76567,-1.21674 1.1673,-2.62759 1.75094,-3.94138 0.18345,-1.31518 0.56604,-2.61772 0.55033,-3.94554 -0.0511,-4.32367 -2.35289,-8.07517 -5.68023,-10.70857 -3.45794,-2.7367497 -5.64538,-3.2322897 -9.75025,-4.8565097 -2.056829,-0.44292 -4.084977,-1.05063 -6.170494,-1.32875 -7.461573,-0.99509 -15.142184,-0.30831 -22.389489,1.64992 -6.205468,1.67672 -9.48342,3.3653097 -15.329725,5.9215197 -2.232761,1.14974 -4.465521,2.29948 -6.698279,3.44922 0,0 -2.471378,1.98255 -2.471378,1.98255 v 0 c 2.245358,-1.16829 4.490718,-2.33657 6.736078,-3.50486 5.795753,-2.55931 9.127521,-4.28711 15.280094,-5.9669097 7.168166,-1.95708 14.770439,-2.63626 22.153703,-1.64297 2.058003,0.27687 4.059137,0.87836 6.088705,1.31755 4.071125,1.6253097 6.139885,2.0799397 9.552745,4.8098997 3.23247,2.58565 5.45572,6.23237 5.47712,10.45238 0.007,1.29354 -0.37352,2.56 -0.56028,3.84001 -2.32741,5.11972 -0.90731,2.90581 -4.74951,7.41564 -0.46328,0.54378 -0.82125,1.21284 -1.41579,1.60887 -5.76529,3.84029 -12.536261,5.72245 -19.129482,7.52861 -2.52118,0.55777 -5.028895,1.18033 -7.563543,1.6733 -10.23417,1.99048 -20.680256,2.84657 -31.100709,2.69409 -3.233034,-0.1538 -3.546692,-0.64422 -6.661166,2.29826 -0.25699,0.2428 0.55559,0.44275 0.86505,0.61375 0.69535,0.38424 1.43139,0.68991 2.140921,1.04728 3.741163,1.88436 2.953499,1.50881 6.955954,3.78594 1.443463,0.90927 2.912028,1.77987 4.330396,2.72782 8.46529,5.65768 16.197656,12.35399 23.509633,19.41668 2.760851,2.84228 4.546166,4.6034 7.119366,7.52893 2.165385,2.46188 2.852066,3.40475 4.752899,5.8955 0.460692,0.60367 0.620474,1.72757 1.374603,1.81669 1.460878,0.17263 2.840294,-0.76719 4.260442,-1.15079 0.06677,-0.17612 0.203123,-0.34003 0.200305,-0.52836 -0.01331,-0.88929 -0.637624,-3.02985 -0.811066,-3.66365 -0.970534,-3.54658 -2.057329,-7.06007 -3.074498,-10.59321 -3.459835,-11.94156 -6.978169,-23.86611 -10.504136,-35.78829 -2.298068,-7.45606 -4.530556,-14.95306 -7.23115,-22.27712 -0.843997,-2.28894 -2.884395,-7.77041 -4.542512,-10.0146697 -0.588983,-0.7972 -1.517898,-1.27502 -2.276848,-1.91252 -1.759357,0.7657 -3.742359,1.14678 -5.278069,2.2970997 -1.596671,1.19597 -3.196874,7.1877 -3.481586,8.2095 -0.662835,2.37885 -1.194068,4.79254 -1.762308,7.19574 -1.931794,8.16989 -2.295152,10.08641 -4.105614,18.51967 -2.11909,9.87297 -4.135762,19.77556 -6.554385,29.58127 -0.994079,4.03024 -2.53283,10.08395 -4.008687,14.16615 -0.44452,1.22952 -1.06128,2.38975 -1.59191,3.58462 0.76077,-0.18473 1.88528,0.12055 2.28231,-0.55418 0.33629,-0.57151 -0.77396,-1.11769 -0.91761,-1.76505 -0.35091,-1.58147 -0.43171,-3.21315 -0.54555,-4.82908 -0.17677,-2.5092 -0.23174,-5.02557 -0.32579,-7.53924 -0.25212,-6.73887 -0.40261,-13.48131 -0.68041,-20.21932 -0.53227,-12.85748 -0.33332,-8.84877 -0.98459,-21.48326 -0.13815,-2.68028 -0.67677,-13.11902 -0.9102,-16.40329 -0.24949,-3.51036 -0.39535,-4.5439 -0.75417,-7.62055 0,0 -3.4481304,1.85659 -3.4481304,1.85659 z"
       inkscape:export-filename="C:\Users\andre\Documents\Workshop\Images\AP_Logo.png"
       inkscape:export-xdpi="96"
       inkscape:export-ydpi="96" />
  </g>
</svg>
